<svg id="&#x421;&#x43B;&#x43E;&#x439;_1" enable-background="new 0 0 100 100" viewBox="0 0 100 100" xmlns="http://www.w3.org/2000/svg"><g><path d="m89.478 19.312c-.848-1.089-2.418-1.286-3.508-.437-1.09.848-1.286 2.418-.438 3.508 6.194 7.958 9.468 17.508 9.468 27.617 0 5.625-1.024 11.11-3.044 16.304-.5 1.287.137 2.735 1.424 3.236.298.116.604.171.905.171 1.001 0 1.946-.605 2.331-1.595 2.245-5.773 3.384-11.869 3.384-18.116 0-11.232-3.639-21.844-10.522-30.688z"/><path d="m25.181 12.457c7.363-4.878 15.946-7.457 24.819-7.457 8.93 0 17.56 2.61 24.955 7.547.426.285.908.421 1.386.421.807 0 1.6-.391 2.081-1.112.767-1.148.457-2.701-.691-3.467-8.22-5.488-17.809-8.389-27.731-8.389-9.858 0-19.396 2.866-27.581 8.289-1.151.762-1.466 2.313-.703 3.465.762 1.15 2.313 1.466 3.465.703z"/><path d="m18.658 17.709c.991-.962 1.014-2.545.053-3.535-.962-.992-2.545-1.014-3.535-.053-9.787 9.501-15.176 22.243-15.176 35.879 0 1.381 1.119 2.5 2.5 2.5s2.5-1.119 2.5-2.5c0-12.272 4.851-23.74 13.658-32.291z"/><path d="m86.295 66.415c-1.348-.262-2.667.62-2.933 1.976-1.588 8.142-4.206 14.445-7.782 18.735-.885 1.061-.741 2.637.319 3.521.467.39 1.035.58 1.6.58.716 0 1.427-.306 1.921-.899 4.121-4.943 7.099-12.002 8.851-20.979.263-1.357-.621-2.669-1.976-2.934z"/><path d="m66.703 13.645c-1.257-.577-2.739-.028-3.316 1.226s-.028 2.739 1.227 3.316c12.384 5.698 20.386 18.186 20.386 31.869 0 1 0 3.082-.145 5.838-.073 1.379.985 2.556 2.364 2.628.045.003.09.004.134.004 1.32 0 2.425-1.034 2.494-2.368.153-2.888.153-5.059.153-6.158 0-15.573-9.145-29.843-23.297-36.355z"/><path d="m15 50c0-19.299 15.701-35 35-35 1.381 0 2.5-1.119 2.5-2.5s-1.119-2.5-2.5-2.5c-22.056 0-40 17.944-40 40 0 5.248-.498 11.6-4.375 14.154-1.153.76-1.472 2.311-.712 3.463.481.729 1.278 1.125 2.09 1.125.472 0 .949-.133 1.373-.412 5.871-3.868 6.624-11.828 6.624-18.33z"/><path d="m50 20c-5.342 0-10.587 1.422-15.169 4.113-1.191.699-1.589 2.231-.89 3.421s2.231 1.589 3.421.89c3.816-2.24 8.186-3.424 12.638-3.424 13.785 0 25 11.215 25 25 0 10.82-1.835 30.858-14.125 43.494-.963.99-.94 2.572.049 3.535.486.473 1.115.708 1.743.708.651 0 1.302-.253 1.792-.757 13.522-13.903 15.541-35.402 15.541-46.98 0-16.542-13.458-30-30-30z"/><path d="m26.858 30.908c-4.422 5.355-6.858 12.135-6.858 19.092 0 1.381 1.119 2.5 2.5 2.5s2.5-1.119 2.5-2.5c0-5.797 2.029-11.447 5.714-15.909.879-1.064.729-2.64-.336-3.52-1.064-.879-2.64-.728-3.52.337z"/><path d="m24.155 59.306c.241-1.359-.666-2.657-2.025-2.898-1.361-.236-2.657.666-2.898 2.025-.734 4.141-3.11 13.956-9.309 15.663-1.332.366-2.113 1.743-1.747 3.074.305 1.108 1.312 1.837 2.409 1.837.22 0 .443-.029.665-.091 6.393-1.76 10.976-8.725 12.905-19.61z"/><path d="m67.404 55.757c-1.377-.097-2.582.913-2.695 2.289-.96 11.769-4.829 27.813-17.812 37.416-1.11.821-1.344 2.387-.523 3.496.49.663 1.246 1.014 2.012 1.014.517 0 1.038-.159 1.485-.49 14.491-10.718 18.777-28.228 19.822-41.029.112-1.377-.913-2.584-2.289-2.696z"/><path d="m35 50c0-8.271 6.729-15 15-15 5.761 0 11.082 3.364 13.557 8.57.592 1.247 2.082 1.777 3.331 1.185 1.247-.593 1.777-2.084 1.185-3.331-3.3-6.94-10.393-11.424-18.073-11.424-11.028 0-20 8.972-20 20 0 4.867-.652 29.264-13.53 31.63-1.358.25-2.257 1.553-2.007 2.911.222 1.205 1.273 2.048 2.456 2.048.15 0 .302-.013.455-.041 16.355-3.005 17.626-28.734 17.626-36.548z"/><path d="m49.586 80.444c-1.21-.663-2.73-.221-3.394.99-2.918 5.32-6.941 9.019-12.299 11.304-1.27.542-1.86 2.011-1.318 3.281.405.949 1.329 1.52 2.3 1.52.327 0 .66-.065.98-.201 6.428-2.742 11.243-7.158 14.721-13.499.664-1.211.221-2.731-.99-3.395z"/><path d="m51.131 76.651c.336.152.688.226 1.034.226.95 0 1.857-.544 2.277-1.465 5.158-11.322 5.558-22.313 5.558-25.412 0-5.514-4.486-10-10-10s-10 4.486-10 10c0 1.381 1.119 2.5 2.5 2.5s2.5-1.119 2.5-2.5c0-2.757 2.243-5 5-5s5 2.243 5 5c0 2.845-.368 12.934-5.108 23.34-.573 1.257-.018 2.739 1.239 3.311z"/><path d="m43.842 64.154c.212-1.364-.721-2.643-2.085-2.855-1.367-.208-2.643.722-2.855 2.086-1.646 10.573-5.623 23.274-15.222 23.743-1.379.067-2.442 1.24-2.375 2.619.065 1.338 1.17 2.378 2.495 2.378.041 0 .083-.001.124-.003 10.26-.501 17.147-10.172 19.918-27.968z"/></g></svg>